<?xml version="1.0" encoding="UTF-8"?>
<!DOCTYPE svg PUBLIC "-//W3C//DTD SVG 1.1//EN" "http://www.w3.org/Graphics/SVG/1.1/DTD/svg11.dtd">
<!-- Creator: CorelDRAW -->
<svg xmlns="http://www.w3.org/2000/svg" xml:space="preserve" width="2048px" height="2048px" style="shape-rendering:geometricPrecision; text-rendering:geometricPrecision; image-rendering:optimizeQuality; fill-rule:evenodd; clip-rule:evenodd"
viewBox="0 0 2048 2048"
 xmlns:xlink="http://www.w3.org/1999/xlink">
 <defs>
  <style type="text/css">
   <![CDATA[
    .fil2 {fill:none}
    .fil5 {fill:#212121}
    .fil19 {fill:#263238}
    .fil8 {fill:#293439}
    .fil23 {fill:#37474F}
    .fil10 {fill:#424242}
    .fil22 {fill:#455A64}
    .fil24 {fill:#546E7A}
    .fil14 {fill:#757575}
    .fil17 {fill:#915B33}
    .fil12 {fill:#A61E1E}
    .fil13 {fill:#C62828}
    .fil9 {fill:#C7B7B7}
    .fil21 {fill:#CBAFA3}
    .fil26 {fill:#D9D9D9}
    .fil3 {fill:#DBC0B2}
    .fil20 {fill:#DDBDAF}
    .fil7 {fill:#DFC4B6}
    .fil1 {fill:#E6C047}
    .fil6 {fill:#ECCEBE}
    .fil18 {fill:#EECBBA}
    .fil27 {fill:#EEEEEE}
    .fil25 {fill:#F1D3C3}
    .fil0 {fill:#FFD54F}
    .fil4 {fill:#FFDDCC}
    .fil11 {fill:white}
    .fil16 {fill:#764A29;fill-rule:nonzero}
    .fil15 {fill:#9E6639;fill-rule:nonzero}
   ]]>
  </style>
   <clipPath id="id0">
    <path d="M1024 0c565.538,0 1024,458.462 1024,1024 0,565.538 -458.462,1024 -1024,1024 -565.538,0 -1024,-458.462 -1024,-1024 0,-565.538 458.462,-1024 1024,-1024z"/>
   </clipPath>
 </defs>
 <g id="Layer_x0020_1">
  <metadata id="CorelCorpID_0Corel-Layer"/>
  <path class="fil0" d="M1024 0c565.538,0 1024,458.462 1024,1024 0,565.538 -458.462,1024 -1024,1024 -565.538,0 -1024,-458.462 -1024,-1024 0,-565.538 458.462,-1024 1024,-1024z"/>
  <g style="clip-path:url(#id0)">
   <g id="_385678312">
    <g>
     <polygon id="_3303721441" class="fil1" points="1093.09,527.203 2228.97,1663.09 2230.34,1665.13 2231.18,1667.25 2231.42,1669.44 2230.96,1671.69 2229.72,1673.99 2227.61,1676.34 1091.73,540.459 1093.84,538.111 1095.08,535.806 1095.54,533.555 1095.3,531.365 1094.45,529.245 "/>
     <polygon id="_330371712" class="fil1" points="1091.73,540.459 2227.61,1676.34 2228.72,1677.76 2229.76,1679.22 2230.73,1680.72 2231.63,1682.25 2232.46,1683.82 2233.22,1685.42 2233.92,1687.05 2234.56,1688.72 2235.14,1690.41 2235.65,1692.13 2236.12,1693.87 2236.52,1695.64 2236.88,1697.44 2237.18,1699.25 2237.44,1701.09 2237.64,1702.95 2237.81,1704.82 2237.93,1706.71 2238.01,1708.62 2238.05,1710.54 2238.05,1712.47 2238.02,1714.42 2237.95,1716.37 2237.85,1718.34 2237.73,1720.31 2237.57,1722.29 2237.39,1724.27 2237.19,1726.25 2236.97,1728.24 2236.72,1730.23 2236.46,1732.21 2236.19,1734.2 1100.31,598.316 1100.58,596.332 1100.84,594.345 1101.09,592.358 1101.31,590.371 1101.51,588.385 1101.69,586.404 1101.85,584.426 1101.97,582.456 1102.07,580.492 1102.13,578.537 1102.17,576.592 1102.16,574.658 1102.12,572.737 1102.04,570.83 1101.93,568.939 1101.76,567.064 1101.55,565.208 1101.3,563.371 1101,561.554 1100.64,559.76 1100.24,557.99 1099.77,556.244 1099.26,554.526 1098.68,552.834 1098.04,551.171 1097.34,549.539 1096.58,547.939 1095.75,546.371 1094.85,544.838 1093.88,543.341 1092.84,541.881 "/>
     <polygon id="_330374712" class="fil1" points="1498.84,907.019 2634.72,2042.9 2636.68,2069 1500.8,933.114 "/>
     <polygon id="_330374952" class="fil1" points="1095.36,628.64 2231.24,1764.52 2230.76,1766.42 2230.28,1768.24 2229.79,1769.98 2229.31,1771.65 2228.82,1773.24 2228.35,1774.74 2227.88,1776.16 2227.42,1777.48 2226.97,1778.71 2226.54,1779.84 2226.13,1780.86 2225.74,1781.78 2225.37,1782.59 2225.03,1783.29 2224.71,1783.87 2224.42,1784.33 1088.54,648.445 1088.83,647.985 1089.14,647.405 1089.49,646.708 1089.86,645.898 1090.25,644.979 1090.66,643.954 1091.09,642.826 1091.54,641.6 1092,640.277 1092.47,638.862 1092.94,637.36 1093.43,635.771 1093.91,634.102 1094.4,632.354 1094.88,630.533 "/>
     <polygon id="_330374736" class="fil1" points="1389.28,1152.5 2525.16,2288.39 2524.3,2289.2 1388.42,1153.32 "/>
     <polygon id="_330375960" class="fil1" points="1388.42,1153.32 2524.3,2289.2 2523.32,2290.78 2522.34,2292.32 2521.37,2293.84 2520.41,2295.34 2519.45,2296.81 2518.5,2298.26 2517.55,2299.69 2516.6,2301.1 1380.72,1165.22 1381.67,1163.81 1382.62,1162.38 1383.57,1160.93 1384.53,1159.45 1385.49,1157.96 1386.46,1156.44 1387.44,1154.89 "/>
     <polygon id="_330375840" class="fil1" points="1380.72,1165.22 2516.6,2301.1 2585.01,2521.69 1449.13,1385.81 "/>
     <polygon id="_330375936" class="fil1" points="998.781,674.129 2134.66,1810.01 2132.29,1808.31 2129.94,1806.58 2127.64,1804.82 2125.39,1803.04 2123.19,1801.26 2121.07,1799.48 2119.04,1797.72 2117.09,1795.99 2115.25,1794.29 2113.52,1792.64 2111.91,1791.05 2110.44,1789.53 974.555,653.647 976.029,655.17 977.637,656.762 979.367,658.411 981.21,660.107 983.156,661.841 985.194,663.601 987.314,665.376 989.506,667.158 991.758,668.933 994.063,670.694 996.406,672.43 "/>
     <polygon id="_330375288" class="fil1" points="1450.3,1385.81 2586.18,2521.69 2586.18,2556.04 1450.3,1420.16 "/>
     <polygon id="_330375408" class="fil1" points="660.185,764.134 1796.07,1900.02 1796.33,1900.28 1796.6,1900.55 1796.86,1900.81 1797.12,1901.08 1797.37,1901.36 1797.62,1901.63 661.74,765.747 661.49,765.473 661.236,765.201 660.978,764.931 660.717,764.663 660.453,764.397 "/>
     <polygon id="_330375864" class="fil1" points="688.597,1168.38 1824.48,2304.26 1824.07,2304.08 688.188,1168.19 "/>
     <polygon id="_330375696" class="fil1" points="688.188,1168.19 1824.07,2304.08 1822.54,2303.38 686.659,1167.5 "/>
     <polygon id="_330375504" class="fil1" points="686.659,1167.5 1822.54,2303.38 1821.18,2302.75 1819.82,2302.11 1818.44,2301.46 1817.05,2300.79 1815.66,2300.12 1814.25,2299.43 1812.83,2298.73 1811.4,2298.02 1809.95,2297.3 1808.5,2296.57 1807.03,2295.82 1805.55,2295.07 1804.05,2294.3 1802.54,2293.51 1801.02,2292.72 1799.48,2291.91 663.597,1156.03 665.136,1156.84 666.661,1157.63 668.17,1158.41 669.667,1159.18 671.148,1159.94 672.617,1160.69 674.073,1161.42 675.517,1162.14 676.948,1162.85 678.368,1163.55 679.776,1164.23 681.173,1164.91 682.56,1165.57 683.936,1166.22 685.302,1166.87 "/>
     <polygon id="_330375528" class="fil1" points="656.156,1242.19 1792.04,2378.07 1599.88,2379.25 463.999,1243.37 "/>
     <polygon id="_330375648" class="fil1" points="804.852,1420.16 1940.73,2556.04 1755.78,2556.04 619.899,1420.16 "/>
     <polygon id="_330376296" class="fil1" points="658.401,1153.2 1794.28,2289.09 1793.66,2292.87 1793.09,2296.57 1792.57,2300.18 1792.09,2303.7 1791.66,2307.15 1791.27,2310.52 1790.92,2313.81 1790.61,2317.03 1790.34,2320.18 1790.11,2323.25 1789.91,2326.27 1789.75,2329.21 1789.63,2332.09 1789.53,2334.92 1789.47,2337.68 1789.44,2340.39 1789.44,2343.05 1789.46,2345.66 1789.52,2348.21 1789.59,2350.72 1789.69,2353.19 1789.82,2355.61 1789.96,2358 1790.13,2360.35 1790.32,2362.66 1790.52,2364.94 1790.74,2367.19 1790.97,2369.41 1791.22,2371.61 1791.48,2373.78 1791.75,2375.93 1792.04,2378.07 656.156,1242.19 655.873,1240.05 655.6,1237.9 655.339,1235.73 655.091,1233.53 654.856,1231.31 654.636,1229.06 654.434,1226.78 654.249,1224.47 654.082,1222.12 653.937,1219.73 653.813,1217.31 653.711,1214.84 653.634,1212.33 653.581,1209.77 653.556,1207.17 653.559,1204.51 653.589,1201.8 653.652,1199.04 653.745,1196.21 653.871,1193.33 654.031,1190.38 654.227,1187.37 654.459,1184.3 654.729,1181.15 655.038,1177.93 655.387,1174.64 655.778,1171.27 656.212,1167.82 656.69,1164.29 657.213,1160.68 657.784,1156.99 "/>
     <polygon id="_330376344" class="fil1" points="663.597,1156.03 1799.48,2291.91 1798.86,2291.57 1798.24,2291.23 1797.61,2290.89 1796.98,2290.56 1796.35,2290.23 1795.71,2289.89 1795.06,2289.55 1794.4,2289.2 658.521,1153.32 659.18,1153.67 659.828,1154.01 660.469,1154.34 661.102,1154.68 661.731,1155.01 662.356,1155.34 662.977,1155.68 "/>
     <polygon id="_330376248" class="fil1" points="538.533,959.42 1674.41,2095.3 1674.2,2095.14 1674,2094.97 1673.8,2094.8 537.917,958.914 538.114,959.085 538.32,959.254 "/>
     <polygon id="_330376752" class="fil1" points="678.715,879.049 1814.6,2014.93 1815.48,2015.85 1816.3,2017.03 1816.94,2018.36 1817.31,2019.76 1817.31,2021.1 1816.82,2022.28 1815.76,2023.21 1814.01,2023.78 678.125,887.9 679.875,887.331 680.94,886.4 681.426,885.213 681.432,883.873 681.061,882.483 680.417,881.146 679.601,879.967 "/>
     <polygon id="_330376272" class="fil1" points="675.172,816.146 1811.05,1952.03 1811.64,1955.12 1812.07,1957.77 1812.38,1960.02 1812.56,1961.91 1812.64,1963.49 1812.62,1964.78 1812.53,1965.83 1812.38,1966.68 1812.18,1967.36 1811.95,1967.92 1811.7,1968.39 1811.45,1968.81 1811.21,1969.22 1811,1969.66 1810.82,1970.17 1810.7,1970.79 674.819,834.91 674.939,834.291 675.114,833.78 675.33,833.337 675.571,832.925 675.823,832.503 676.072,832.033 676.302,831.477 676.501,830.795 676.652,829.948 676.741,828.898 676.754,827.605 676.678,826.032 676.496,824.137 676.193,821.885 675.756,819.233 "/>
     <polygon id="_330376488" class="fil1" points="854.456,1420.16 1990.34,2556.04 1990.34,2680.66 854.456,1544.78 "/>
     <polygon id="_330376512" class="fil1" points="854.456,1544.78 1990.34,2680.66 1940.73,2680.66 804.852,1544.78 "/>
     <polygon id="_330376776" class="fil1" points="678.125,887.9 1814.01,2023.78 1814.78,2025.22 1815.24,2026.55 1815.36,2027.77 1815.13,2028.9 1814.52,2029.96 1813.51,2030.97 1812.09,2031.93 1810.23,2032.87 674.346,896.988 676.204,896.05 677.626,895.086 678.635,894.08 679.247,893.018 679.482,891.885 679.36,890.664 678.902,889.341 "/>
     <polygon id="_330376632" class="fil1" points="661.74,765.747 1797.62,1901.63 1797.88,1901.89 661.994,766.01 "/>
     <polygon id="_330376152" class="fil1" points="661.994,766.01 1797.88,1901.89 1798.11,1902.16 1798.34,1902.44 1798.57,1902.71 1798.8,1902.99 1799.01,1903.27 1799.23,1903.55 1799.44,1903.84 1799.65,1904.12 663.771,768.242 663.562,767.956 663.349,767.672 663.133,767.39 662.914,767.11 662.691,766.831 662.463,766.556 662.23,766.282 "/>
     <polygon id="_330377304" class="fil1" points="663.771,768.242 1799.65,1904.12 1799.91,1904.46 664.03,768.573 "/>
     <polygon id="_330377448" class="fil1" points="664.03,768.573 1799.91,1904.46 1800.14,1904.79 1800.37,1905.12 1800.58,1905.46 1800.8,1905.8 1801.01,1906.14 1801.21,1906.48 1801.41,1906.83 1801.6,1907.18 665.722,771.299 665.529,770.949 665.332,770.601 665.128,770.256 664.919,769.915 664.704,769.575 664.484,769.24 664.26,768.905 "/>
     <polygon id="_330377424" class="fil1" points="665.722,771.299 1801.6,1907.18 1802.26,1908.53 1802.82,1909.93 1803.26,1911.36 1803.6,1912.85 1803.82,1914.37 1803.91,1915.94 1803.89,1917.56 1803.73,1919.22 667.851,783.337 668.006,781.678 668.033,780.062 667.935,778.491 667.717,776.964 667.382,775.482 666.935,774.043 666.381,772.649 "/>
     <polygon id="_330377352" class="fil1" points="667.851,783.337 1803.73,1919.22 1803.69,1919.56 1803.64,1919.89 1803.59,1920.21 1803.53,1920.52 1803.47,1920.81 1803.41,1921.1 1803.35,1921.38 1803.28,1921.65 667.401,785.769 667.466,785.497 667.529,785.218 667.59,784.932 667.648,784.635 667.705,784.329 667.757,784.012 667.806,783.681 "/>
     <polygon id="_330377160" class="fil1" points="667.401,785.769 1803.28,1921.65 1803.23,1921.87 667.347,785.988 "/>
     <polygon id="_330376872" class="fil1" points="667.347,785.988 1803.23,1921.87 1803.15,1922.19 1803.06,1922.5 1802.98,1922.8 1802.9,1923.09 1802.82,1923.37 1802.74,1923.64 1802.66,1923.9 1802.58,1924.15 666.7,788.265 666.776,788.014 666.856,787.755 666.936,787.484 667.017,787.204 667.1,786.914 667.183,786.615 667.265,786.305 "/>
     <polygon id="_330377472" class="fil1" points="666.7,788.265 1802.58,1924.15 1802.57,1924.2 666.686,788.318 "/>
     <polygon id="_330376944" class="fil1" points="666.686,788.318 1802.57,1924.2 1802.35,1924.95 1802.2,1925.65 1802.12,1926.34 1802.14,1927.04 1802.28,1927.78 1802.55,1928.57 1802.99,1929.45 1803.61,1930.43 667.731,794.548 667.111,793.563 666.673,792.687 666.395,791.894 666.257,791.16 666.238,790.46 666.316,789.77 666.473,789.064 "/>
     <polygon id="_330377016" class="fil1" points="667.731,794.548 1803.61,1930.43 1804.38,1931.59 1805.08,1932.78 1805.74,1933.98 1806.34,1935.22 1806.89,1936.47 1807.4,1937.75 1807.87,1939.06 1808.31,1940.39 1808.71,1941.75 1809.09,1943.13 1809.45,1944.54 1809.79,1945.98 1810.12,1947.45 1810.43,1948.95 1810.74,1950.47 1811.05,1952.03 675.172,816.146 674.862,814.59 674.552,813.063 674.235,811.567 673.909,810.099 673.57,808.66 673.212,807.249 672.832,805.864 672.426,804.506 671.989,803.175 671.517,801.87 671.007,800.59 670.454,799.334 669.854,798.102 669.204,796.895 668.497,795.71 "/>
     <polygon id="_330378000" class="fil1" points="1450.3,1420.16 2586.18,2556.04 2401.35,2556.04 1265.46,1420.16 "/>
     <polygon id="_330377952" class="fil1" points="674.819,834.91 1810.7,1970.79 1810.74,1972.81 1811.11,1974.77 1811.76,1976.67 1812.65,1978.53 1813.74,1980.37 1814.98,1982.19 1816.35,1984.02 1817.79,1985.87 1819.26,1987.75 1820.72,1989.67 1822.13,1991.64 1823.45,1993.7 1824.64,1995.83 1825.66,1998.07 1826.46,2000.42 1827,2002.89 691.118,867.011 690.577,864.535 689.777,862.185 688.763,859.949 687.573,857.813 686.252,855.762 684.838,853.784 683.376,851.864 681.904,849.987 680.465,848.141 679.102,846.312 677.855,844.485 676.766,842.647 675.877,840.785 675.227,838.885 674.861,836.93 "/>
     <polygon id="_330377640" class="fil1" points="691.118,867.011 1827,2002.89 1826.93,2004.71 1826.27,2006.04 1825.12,2006.97 1823.62,2007.59 1821.86,2007.97 1819.97,2008.2 1818.06,2008.37 1816.25,2008.56 680.369,872.676 682.182,872.49 684.09,872.322 685.98,872.086 687.735,871.703 689.241,871.086 690.384,870.154 691.048,868.823 "/>
     <polygon id="_330378192" class="fil1" points="680.369,872.676 1816.25,2008.56 1815.93,2009.02 1815.68,2009.59 1815.47,2010.26 1815.29,2011.04 1815.13,2011.9 1814.97,2012.84 1814.8,2013.85 1814.6,2014.93 678.715,879.049 678.917,877.972 679.089,876.957 679.249,876.016 679.408,875.154 679.586,874.381 679.795,873.705 680.051,873.134 "/>
     <polygon id="_330377736" class="fil1" points="674.346,896.988 1810.23,2032.87 1810.62,2034.42 1810.9,2035.96 1811.08,2037.5 1811.17,2039.04 1811.17,2040.56 1811.09,2042.06 1810.93,2043.55 1810.7,2045.02 674.819,909.142 675.05,907.672 675.21,906.181 675.292,904.674 675.291,903.154 675.201,901.622 675.017,900.082 674.735,898.536 "/>
     <polygon id="_330378168" class="fil1" points="674.819,909.142 1810.7,2045.02 1810.27,2046.95 1809.73,2048.66 1809.09,2050.17 1808.34,2051.5 1807.49,2052.65 1806.53,2053.64 1805.48,2054.49 1804.32,2055.2 1803.07,2055.8 1801.71,2056.29 1800.26,2056.69 1798.71,2057.01 1797.06,2057.26 1795.32,2057.47 1793.49,2057.63 1791.57,2057.77 655.685,921.888 657.61,921.747 659.443,921.583 661.182,921.38 662.827,921.126 664.375,920.806 665.828,920.408 667.184,919.918 668.441,919.322 669.597,918.608 670.653,917.761 671.608,916.768 672.46,915.616 673.208,914.291 673.851,912.779 674.389,911.068 "/>
     <polygon id="_330377928" class="fil1" points="655.685,921.888 1791.57,2057.77 1789.5,2058.03 1787.55,2058.49 1785.69,2059.15 1783.93,2060 1782.26,2061.02 1780.69,2062.22 1779.2,2063.57 1777.79,2065.08 1776.47,2066.72 1775.21,2068.5 1774.04,2070.4 1772.93,2072.41 1771.88,2074.52 1770.9,2076.73 1769.97,2079.02 1769.1,2081.38 633.218,945.498 634.089,943.135 635.015,940.844 635.999,938.638 637.045,936.525 638.155,934.516 639.334,932.618 640.584,930.842 641.911,929.196 643.316,927.692 644.806,926.337 646.381,925.142 648.048,924.115 649.806,923.267 651.664,922.607 653.623,922.144 "/>
     <polygon id="_330379080" class="fil1" points="645.173,948.324 1781.05,2084.21 1783.02,2113.66 647.138,977.782 "/>
     <polygon id="_330379032" class="fil1" points="650.777,980.941 1786.66,2116.82 1788.39,2118.5 1790.06,2120.23 1791.68,2122.01 1793.24,2123.85 1794.74,2125.72 1796.2,2127.65 1797.6,2129.61 1798.95,2131.6 1800.26,2133.62 1801.52,2135.67 1802.73,2137.74 1803.89,2139.83 1805.01,2141.93 1806.09,2144.04 670.212,1008.16 669.133,1006.05 668.011,1003.94 666.846,1001.86 665.636,999.787 664.379,997.739 663.074,995.716 661.721,993.724 660.318,991.764 658.863,989.842 657.356,987.963 655.796,986.129 654.18,984.344 652.508,982.614 "/>
     <polygon id="_330379104" class="fil1" points="670.212,1008.16 1806.09,2144.04 1807,2145.87 1807.9,2147.7 1808.78,2149.54 1809.65,2151.38 1810.51,2153.23 1811.36,2155.08 1812.2,2156.93 1813.03,2158.79 1813.86,2160.65 1814.68,2162.51 1815.49,2164.37 1816.3,2166.23 1817.11,2168.1 1817.92,2169.96 1818.73,2171.83 1819.54,2173.69 1820.35,2175.56 1821.17,2177.42 1821.99,2179.28 1822.82,2181.14 1823.65,2183 1824.49,2184.85 1825.34,2186.71 1826.21,2188.55 1827.08,2190.4 1827.96,2192.24 1828.86,2194.07 1829.78,2195.9 1830.71,2197.73 1831.66,2199.55 1832.62,2201.36 1833.61,2203.17 697.73,1067.29 696.743,1065.48 695.777,1063.66 694.829,1061.85 693.898,1060.02 692.983,1058.19 692.083,1056.36 691.197,1054.51 690.324,1052.67 689.463,1050.82 688.612,1048.97 687.769,1047.12 686.937,1045.26 686.11,1043.4 685.289,1041.54 684.473,1039.68 683.66,1037.81 682.85,1035.95 682.042,1034.08 681.233,1032.22 680.423,1030.35 679.612,1028.49 678.797,1026.63 677.977,1024.77 677.152,1022.91 676.32,1021.05 675.48,1019.2 674.632,1017.35 673.772,1015.5 672.903,1013.66 672.019,1011.82 671.123,1009.99 "/>
     <polygon id="_330378888" class="fil1" points="697.73,1067.29 1833.61,2203.17 1833.83,2203.56 1834.05,2203.95 1834.27,2204.32 1834.5,2204.7 1834.72,2205.08 1834.94,2205.46 1835.16,2205.84 1835.38,2206.23 699.501,1070.35 699.279,1069.96 699.058,1069.57 698.836,1069.19 698.615,1068.82 698.393,1068.44 698.173,1068.06 697.951,1067.68 "/>
     <polygon id="_330379008" class="fil1" points="699.501,1070.35 1835.38,2206.23 1836.11,2207.48 1836.83,2208.7 1837.55,2209.9 1838.27,2211.07 1838.98,2212.21 1839.7,2213.33 1840.42,2214.43 1841.13,2215.5 705.253,1079.62 704.535,1078.55 703.818,1077.45 703.101,1076.33 702.384,1075.19 701.665,1074.02 700.946,1072.82 700.224,1071.6 "/>
     <polygon id="_330378576" class="fil1" points="705.253,1079.62 1841.13,2215.5 1841.24,2215.65 705.355,1079.77 "/>
     <polygon id="_330378696" class="fil1" points="705.355,1079.77 1841.24,2215.65 1841.59,2216.16 1841.93,2216.66 1842.28,2217.16 1842.63,2217.65 1842.98,2218.14 1843.33,2218.62 1843.69,2219.09 1844.04,2219.56 708.156,1083.68 707.804,1083.21 707.453,1082.73 707.102,1082.25 706.752,1081.77 706.403,1081.28 706.053,1080.78 705.704,1080.28 "/>
     <polygon id="_330378936" class="fil1" points="708.156,1083.68 1844.04,2219.56 1844.17,2219.74 708.292,1083.86 "/>
     <polygon id="_330378792" class="fil1" points="708.292,1083.86 1844.17,2219.74 1844.53,2220.21 1844.89,2220.67 1845.24,2221.12 1845.6,2221.57 1845.96,2222.02 1846.32,2222.46 1846.68,2222.89 1847.05,2223.32 711.166,1087.44 710.803,1087.01 710.442,1086.57 710.082,1086.14 709.721,1085.69 709.362,1085.24 709.006,1084.79 708.648,1084.32 "/>
     <polygon id="_330378864" class="fil1" points="711.166,1087.44 1847.05,2223.32 1847.09,2223.38 711.212,1087.5 "/>
     <polygon id="_330378912" class="fil1" points="711.212,1087.5 1847.09,2223.38 1847.32,2223.64 1847.55,2223.9 1847.78,2224.15 1848.01,2224.4 1848.24,2224.65 1848.47,2224.9 1848.7,2225.14 1848.93,2225.39 713.053,1089.51 712.822,1089.26 712.591,1089.01 712.36,1088.76 712.129,1088.52 711.898,1088.27 711.668,1088.01 711.44,1087.76 "/>
     <polygon id="_330379824" class="fil1" points="1215.74,1420.16 2351.62,2556.04 1990.34,2556.04 854.456,1420.16 "/>
     <polygon id="_330379416" class="fil1" points="1265.46,1544.78 2401.35,2680.66 2351.62,2680.66 1215.74,1544.78 "/>
     <polygon id="_330379200" class="fil1" points="1265.46,1420.16 2401.35,2556.04 2401.35,2680.66 1265.46,1544.78 "/>
     <polygon id="_330379320" class="fil1" points="963.413,628.772 2099.29,1764.65 2099.09,1764.8 2098.89,1764.93 2098.68,1765.05 2098.47,1765.17 2098.26,1765.29 2098.04,1765.39 2097.81,1765.48 2097.58,1765.56 961.699,629.679 961.931,629.598 962.155,629.504 962.376,629.403 962.591,629.292 962.802,629.173 963.009,629.046 963.212,628.913 "/>
     <polygon id="_330379296" class="fil1" points="961.699,629.679 2097.58,1765.56 2096.57,1765.8 2095.52,1765.86 2094.45,1765.75 2093.37,1765.48 2092.28,1765.05 2091.2,1764.47 2090.12,1763.74 2089.06,1762.88 2088.03,1761.88 952.149,626.001 953.18,626.993 954.238,627.857 955.314,628.583 956.401,629.165 957.489,629.598 958.57,629.872 959.639,629.982 960.685,629.919 "/>
     <polygon id="_330379872" class="fil1" points="1088.54,648.445 2224.42,1784.33 2223.59,1785.47 2222.58,1786.72 2221.41,1788.07 2220.09,1789.51 2218.62,1791.03 2217.02,1792.61 2215.3,1794.26 2213.46,1795.95 2211.53,1797.67 2209.5,1799.43 2207.39,1801.2 2205.2,1802.97 2202.96,1804.74 2200.66,1806.5 2198.33,1808.23 2195.96,1809.93 1060.08,674.044 1062.45,672.348 1064.78,670.617 1067.08,668.861 1069.32,667.089 1071.5,665.314 1073.62,663.544 1075.64,661.791 1077.58,660.064 1079.42,658.374 1081.14,656.731 1082.74,655.146 1084.21,653.628 1085.53,652.189 1086.7,650.839 1087.71,649.587 "/>
     <polygon id="_330379272" class="fil1" points="1510.89,958.003 2646.77,2093.89 2646.64,2094.08 2646.49,2094.26 2646.32,2094.44 2646.15,2094.62 2645.96,2094.8 2645.76,2094.97 2645.56,2095.14 2645.34,2095.3 1509.46,959.42 1509.68,959.254 1509.88,959.085 1510.08,958.914 1510.27,958.739 1510.44,958.562 1510.61,958.38 1510.76,958.194 "/>
     <polygon id="_330379800" class="fil1" points="1111.06,597.636 2246.94,1733.52 2247.65,1734.38 2248.28,1735.37 2248.81,1736.48 2249.24,1737.69 2249.58,1739.01 2249.82,1740.41 2249.95,1741.89 2249.99,1743.44 2249.91,1745.05 2249.73,1746.71 2249.44,1748.4 2249.04,1750.13 2248.52,1751.87 1112.64,615.989 1113.15,614.247 1113.56,612.523 1113.85,610.826 1114.03,609.169 1114.11,607.561 1114.07,606.01 1113.94,604.529 1113.7,603.124 1113.36,601.81 1112.93,600.593 1112.4,599.486 1111.77,598.497 "/>
     <polygon id="_330379680" class="fil1" points="1112.64,615.989 2248.52,1751.87 2247.9,1753.58 2247.2,1755.21 2246.43,1756.75 2245.59,1758.19 2244.69,1759.53 2243.74,1760.77 2242.75,1761.88 2241.73,1762.88 2240.67,1763.74 2239.6,1764.47 2238.51,1765.05 2237.42,1765.48 2236.33,1765.75 2235.26,1765.86 2234.2,1765.8 2233.16,1765.56 1097.28,629.679 1098.32,629.919 1099.38,629.982 1100.45,629.872 1101.54,629.598 1102.63,629.167 1103.72,628.584 1104.79,627.858 1105.84,626.995 1106.87,626.001 1107.86,624.885 1108.81,623.652 1109.71,622.31 1110.54,620.867 1111.32,619.327 1112.02,617.699 "/>
     <polygon id="_330380568" class="fil1" points="1097.28,629.679 2233.16,1765.56 2232.9,1765.47 2232.65,1765.37 2232.4,1765.25 2232.16,1765.13 2231.92,1764.99 2231.69,1764.84 2231.46,1764.69 2231.24,1764.52 1095.36,628.64 1095.58,628.805 1095.81,628.961 1096.04,629.108 1096.28,629.243 1096.52,629.369 1096.77,629.484 1097.02,629.587 "/>
     <polygon id="_330380304" class="fil1" points="1373.53,896.988 2509.41,2032.87 2507.59,2031.93 2506.2,2030.97 2505.21,2029.96 1369.33,894.081 1370.32,895.086 1371.71,896.05 "/>
     <polygon id="_330379992" class="fil1" points="1060.08,674.044 2195.96,1809.93 2195.96,1822.56 1060.08,686.68 "/>
     <polygon id="_330380448" class="fil1" points="1060.08,686.68 2195.96,1822.56 2198.56,1832.95 1062.68,697.065 "/>
     <polygon id="_330380256" class="fil1" points="1073.07,701.786 2208.95,1837.67 2208.98,1837.71 1073.1,701.83 "/>
     <polygon id="_330380400" class="fil1" points="1148.47,744.988 2284.35,1880.87 2285.32,1881.96 2286.26,1883.17 2287.18,1884.52 2288.08,1885.98 2288.95,1887.56 2289.8,1889.25 2290.64,1891.04 2291.45,1892.94 2292.24,1894.93 2293.02,1897.01 2293.78,1899.18 2294.52,1901.43 2295.25,1903.76 2295.96,1906.16 2296.65,1908.63 2297.34,1911.16 2298.01,1913.74 2298.67,1916.38 2299.32,1919.07 2299.96,1921.79 2300.59,1924.56 2301.21,1927.36 2301.82,1930.18 2302.43,1933.03 2303.03,1935.9 2303.63,1938.78 2304.22,1941.67 2304.81,1944.56 2305.4,1947.45 2305.98,1950.33 2306.57,1953.21 1170.69,817.325 1170.1,814.452 1169.52,811.568 1168.93,808.678 1168.34,805.785 1167.75,802.897 1167.15,800.017 1166.55,797.15 1165.94,794.301 1165.33,791.475 1164.71,788.677 1164.08,785.912 1163.44,783.184 1162.79,780.498 1162.13,777.86 1161.46,775.274 1160.77,772.745 1160.07,770.279 1159.36,767.879 1158.64,765.551 1157.89,763.3 1157.14,761.13 1156.36,759.047 1155.57,757.054 1154.76,755.157 1153.92,753.363 1153.07,751.674 1152.2,750.095 1151.3,748.633 1150.38,747.291 1149.44,746.075 "/>
     <polygon id="_330380712" class="fil1" points="1279.05,837.271 2414.93,1973.15 2486.21,2203.05 1350.33,1067.17 "/>
     <polygon id="_330381048" class="fil1" points="1272.6,825.928 2408.49,1961.81 2409.96,1963.45 2411.28,1965.21 2412.45,1967.06 2413.45,1969.01 2414.28,1971.04 2414.93,1973.15 1279.05,837.271 1278.4,835.16 1277.57,833.127 1276.57,831.179 1275.4,829.325 1274.07,827.572 "/>
     <polygon id="_330381336" class="fil1" points="1576.55,1128.3 2712.44,2264.18 2712.75,2269.28 2713.06,2274.4 2713.38,2279.51 2713.69,2284.62 2714.01,2289.72 2714.32,2294.78 2714.63,2299.8 2714.94,2304.76 2715.25,2309.67 2715.56,2314.5 2715.86,2319.24 2716.15,2323.89 2716.44,2328.42 2716.72,2332.84 2717,2337.13 2717.27,2341.28 2717.52,2345.27 2717.77,2349.1 2718.01,2352.75 2718.24,2356.22 2718.46,2359.49 2718.66,2362.55 2718.85,2365.4 2719.03,2368.01 2719.2,2370.38 2719.35,2372.49 2719.48,2374.35 2719.6,2375.92 2719.69,2377.21 2719.78,2378.2 2719.84,2378.89 2719.88,2379.25 1584,1243.37 1583.96,1243 1583.89,1242.32 1583.81,1241.33 1583.71,1240.04 1583.6,1238.46 1583.46,1236.61 1583.31,1234.5 1583.15,1232.13 1582.97,1229.51 1582.78,1226.67 1582.58,1223.61 1582.36,1220.34 1582.13,1216.87 1581.89,1213.22 1581.64,1209.39 1581.38,1205.39 1581.12,1201.25 1580.84,1196.96 1580.56,1192.54 1580.27,1188 1579.97,1183.36 1579.67,1178.61 1579.37,1173.79 1579.06,1168.88 1578.75,1163.91 1578.44,1158.89 1578.13,1153.83 1577.81,1148.74 1577.49,1143.63 1577.18,1138.51 1576.87,1133.4 "/>
     <polygon id="_330381360" class="fil1" points="1584,1243.37 2719.88,2379.25 2540.83,2378.18 1404.95,1242.3 "/>
     <polygon id="_330381216" class="fil1" points="1392.31,921.888 2528.19,2057.77 2526.26,2057.63 2524.43,2057.47 2522.68,2057.26 2521.03,2057.01 2519.48,2056.69 2518.02,2056.29 2516.65,2055.8 2515.39,2055.2 2514.23,2054.49 2513.17,2053.64 2512.21,2052.65 1376.33,916.768 1377.29,917.761 1378.35,918.608 1379.51,919.322 1380.77,919.918 1382.13,920.408 1383.59,920.806 1385.15,921.125 1386.8,921.38 1388.55,921.583 1390.38,921.747 "/>
     <polygon id="_330380808" class="fil1" points="1406.08,929.193 2541.96,2065.08 2540.56,2063.57 2539.07,2062.22 2537.49,2061.02 2535.83,2060 2534.07,2059.15 2532.21,2058.49 2530.25,2058.03 2528.19,2057.77 1392.31,921.888 1394.37,922.143 1396.33,922.606 1398.19,923.266 1399.95,924.113 1401.61,925.139 1403.19,926.335 1404.68,927.689 "/>
     <polygon id="_330381384" class="fil1" points="1369.87,887.9 2505.75,2023.78 2504,2023.21 2502.93,2022.28 1367.05,886.4 1368.12,887.331 "/>
     <polygon id="_330380664" class="fil1" points="1367.51,872.676 2503.39,2008.56 2501.61,2008.37 2499.73,2008.2 2497.86,2007.97 2496.11,2007.59 2494.6,2006.97 2493.44,2006.04 1357.56,870.154 1358.72,871.086 1360.23,871.703 1361.98,872.086 1363.85,872.322 1365.73,872.49 "/>
     <polygon id="_330380904" class="fil1" points="1506.82,935.326 2642.7,2071.21 2643.7,2072.54 2644.62,2074.09 2645.47,2075.81 2646.22,2077.66 2646.87,2079.6 2647.41,2081.61 2647.81,2083.62 2648.06,2085.62 2648.17,2087.55 2648.1,2089.38 2647.86,2091.08 2647.42,2092.59 2646.77,2093.89 1510.89,958.003 1511.54,956.708 1511.98,955.195 1512.22,953.502 1512.29,951.67 1512.18,949.737 1511.92,947.742 1511.52,945.724 1510.99,943.722 1510.34,941.776 1509.59,939.924 1508.74,938.206 1507.82,936.66 "/>
     <polygon id="_330381024" class="fil1" points="1504.79,776.105 2640.67,1911.99 2642.43,1914.06 2644.09,1916.11 2645.65,1918.14 2647.12,1920.15 2648.5,1922.14 2649.79,1924.11 2650.98,1926.06 2652.09,1927.98 2653.12,1929.89 2654.07,1931.79 2654.93,1933.66 2655.71,1935.52 2656.42,1937.35 2657.06,1939.18 2657.62,1940.98 2658.11,1942.77 2658.54,1944.55 2658.89,1946.31 2659.19,1948.05 2659.42,1949.78 2659.59,1951.5 2659.7,1953.2 2659.76,1954.89 2659.76,1956.57 2659.71,1958.24 2659.61,1959.9 2659.46,1961.54 2659.26,1963.18 2659.02,1964.8 2658.74,1966.42 1522.86,830.533 1523.14,828.918 1523.38,827.294 1523.58,825.66 1523.73,824.014 1523.83,822.359 1523.88,820.692 1523.88,819.012 1523.82,817.321 1523.71,815.617 1523.54,813.899 1523.31,812.168 1523.01,810.423 1522.66,808.664 1522.23,806.89 1521.74,805.099 1521.18,803.293 1520.54,801.472 1519.83,799.633 1519.05,797.777 1518.18,795.903 1517.24,794.012 1516.21,792.102 1515.1,790.173 1513.9,788.225 1512.62,786.257 1511.24,784.269 1509.77,782.26 1508.21,780.23 1506.55,778.178 "/>
     <polygon id="_330381720" class="fil1" points="1522.86,830.533 2658.74,1966.42 2658.33,1968.98 2657.81,1971.52 2657.2,1974.02 2656.51,1976.49 2655.74,1978.94 2654.9,1981.36 2654.01,1983.76 2653.06,1986.14 2652.07,1988.5 2651.04,1990.84 2649.98,1993.18 2648.89,1995.5 2647.8,1997.81 2646.7,2000.11 2645.6,2002.41 2644.51,2004.71 2643.44,2007 2642.39,2009.3 2641.38,2011.61 2640.41,2013.91 2639.48,2016.23 2638.61,2018.56 2637.81,2020.9 2637.07,2023.25 2636.42,2025.63 2635.86,2028.02 2635.38,2030.43 2635.02,2032.87 2634.76,2035.33 2634.62,2037.82 2634.6,2040.35 2634.72,2042.9 1498.84,907.019 1498.72,904.464 1498.74,901.942 1498.88,899.45 1499.13,896.987 1499.5,894.55 1499.97,892.136 1500.54,889.744 1501.19,887.371 1501.93,885.016 1502.73,882.676 1503.6,880.348 1504.52,878.031 1505.5,875.723 1506.51,873.42 1507.56,871.122 1508.63,868.825 1509.72,866.528 1510.82,864.229 1511.92,861.924 1513.01,859.614 1514.1,857.293 1515.15,854.962 1516.18,852.616 1517.18,850.255 1518.13,847.875 1519.02,845.476 1519.86,843.054 1520.63,840.608 1521.32,838.135 1521.93,835.633 1522.44,833.099 "/>
     <polygon id="_330381744" class="fil1" points="1542.17,979.869 2678.05,2115.75 2681.51,2119.83 2684.7,2124.15 2687.64,2128.72 2690.34,2133.51 2692.8,2138.51 2695.05,2143.72 2697.09,2149.11 2698.94,2154.68 2700.6,2160.42 2702.1,2166.3 2703.44,2172.32 2704.63,2178.47 2705.69,2184.73 2706.63,2191.1 2707.46,2197.55 2708.19,2204.07 2708.84,2210.67 2709.42,2217.31 2709.93,2223.99 2710.4,2230.69 2710.83,2237.41 2711.24,2244.14 2711.63,2250.85 2712.03,2257.53 2712.44,2264.18 1576.55,1128.3 1576.15,1121.65 1575.75,1114.96 1575.36,1108.25 1574.95,1101.53 1574.52,1094.81 1574.05,1088.11 1573.54,1081.43 1572.96,1074.78 1572.31,1068.19 1571.58,1061.66 1570.75,1055.21 1569.81,1048.85 1568.75,1042.59 1567.56,1036.44 1566.22,1030.42 1564.72,1024.53 1563.06,1018.8 1561.21,1013.23 1559.17,1007.84 1556.92,1002.63 1554.46,997.626 1551.76,992.835 1548.82,988.27 1545.63,983.944 "/>
    </g>
    <path id="_385677784" class="fil1" d="M1503.57 932.984c6.02126,1.53307 11.335,18.7618 7.32284,25.0193 -0.341339,0.51378 -0.846851,0.977954 -1.42913,1.41614 62.3693,19.1457 62.6304,98.1957 67.0926,168.877 3.30827,54.293 7.0878,112.944 7.44686,115.073l-179.055 -1.06654 -14.289 -46.4965 -1.06181 -42.6059 -0.320079 -0.696851 -0.859843 0.818505c-2.61969,4.22599 -5.17678,8.16615 -7.69371,11.8949l68.4036 220.596 1.1752 0 0 34.3477 -184.836 0 0 124.621 -49.7233 0 0 -124.621 -361.285 0 0 124.621 -49.604 0 0 -124.621 -184.954 0 0 -34.3477 1.28386 0 67.415 -217.432 -0.409843 -0.185433 -1.52835 -0.699213c-7.213,-3.32953 -14.8134,-7.13032 -23.0622,-11.465 -1.65354,-0.940158 -3.30591,-1.76929 -5.07638,-2.70945l-0.119291 -0.11811c-6.8504,40.8378 -5.31496,66.3213 -2.24528,88.982l-192.157 1.18347c0.23504,-2.12835 4.01457,-60.7796 7.44095,-115.073 4.46221,-70.6808 4.72441,-149.731 67.0938,-168.877 -0.578741,-0.438189 -1.0878,-0.902363 -1.42677,-1.41614 -4.01575,-6.25749 1.29803,-23.4862 7.32284,-25.0193 0.35315,-0.11811 0.707481,-0.11811 0.943702,-0.11811l1.82126 0.248032 1.95945 -26.0941c2.02323,-27.4229 -20.1059,-48.9107 -24.0154,-76.4587 -3.23386,-17.1803 0.39567,-35.9351 21.8894,-58.6713l0.111024 -0.10748c0.497244,-0.523229 1.03583,-1.02047 1.56142,-1.52599 0.445276,-0.432284 0.87756,-0.874016 1.34173,-1.29213 0.607087,-0.546851 1.25079,-1.06536 1.88858,-1.58977 0.424016,-0.349607 0.833859,-0.713386 1.26969,-1.05236 0.657875,-0.512599 1.34882,-0.994489 2.03386,-1.48465 0.457087,-0.324803 0.89882,-0.662599 1.3689,-0.977954 0.669686,-0.451181 1.37008,-0.879922 2.06339,-1.31102 0.519685,-0.327166 1.03228,-0.660237 1.56614,-0.973229 0.657875,-0.38504 1.33583,-0.750001 2.01378,-1.1185 0.604725,-0.328347 1.20236,-0.666142 1.82244,-0.980316 0.62126,-0.317717 1.25787,-0.615355 1.89095,-0.918898 0.712205,-0.338977 1.41969,-0.680315 2.14606,-1.00158 0.563386,-0.251575 1.13976,-0.484252 1.71142,-0.721654 0.825591,-0.344882 1.65236,-0.688583 2.49449,-1.00866l1.49055 -0.544489c0.95315,-0.343701 1.90748,-0.683859 2.87717,-0.998032l1.22717 -0.38504c1.08071,-0.337796 2.16732,-0.662599 3.26693,-0.964961l0.954331 -0.252756c1.21181,-0.32126 2.42599,-0.623623 3.65551,-0.903544l0.660237 -0.142913c1.34055,-0.297638 2.68701,-0.571654 4.04174,-0.818505l0.351969 -0.0614174c1.46575,-0.261024 2.93386,-0.493701 4.40906,-0.699213l0.0637796 -0.00826772c23.2843,-3.20906 47.6008,0.688583 61.5934,11.2973l0.0649607 0.046063c0.871654,0.66378 1.70197,1.35709 2.48858,2.07284l0.177165 0.151181c0.745276,0.686221 1.44095,1.40079 2.10591,2.13307l0.253937 0.263386c0.637796,0.720473 1.22244,1.46811 1.77638,2.2311l0.259843 0.33189c0.617717,0.881103 1.18701,1.78701 1.69134,2.72599 1.89095,3.54095 2.7189,7.55197 2.12953,12.0378 -0.114567,0.937796 -0.276378,1.71378 -0.45,2.43189l-0.0543308 0.218504c-0.216142,0.861024 -0.446457,1.62284 -0.647245,2.27717l-0.0141732 0.0531496c-0.624804,2.06457 -0.86693,3.43819 1.04528,6.23032 4.25197,6.13819 5.78741,13.2177 7.44095,21.5977 3.54331,17.7024 0.11811,15.1063 -0.35315,18.7642 -0.711024,10.976 14.1721,18.5291 16.2992,32.1012 0.7063,5.54764 -6.1441,5.07402 -10.7492,5.66457 -0.944883,1.06181 -1.06299,3.42284 -1.65354,6.37323 2.36221,2.00669 5.07874,7.90631 -0.590552,8.85119 2.47914,4.01221 1.77165,6.60709 -3.77835,9.08741 1.17992,4.1315 1.1811,8.26064 0.472441,12.1547 -2.00906,10.8591 -8.62205,12.039 -19.1339,12.7453 -11.2866,0.797245 -17.9551,10.8213 -22.4669,23.6103 5.04922,0.876379 10.2685,1.85315 11.9551,2.82638l1.96536 29.4579c10.0264,8.06457 17.4284,19.0961 23.074,30.3756 9.80079,19.474 16.8886,39.8929 27.5173,59.1272 0.589371,1.06181 1.1811,2.00551 1.77165,3.06733 1.93228,3.3626 3.8374,6.44174 5.75197,9.26576l0.101575 0.151181c0.930709,1.36536 1.86142,2.66221 2.80158,3.91063l0.135827 0.177165c0.948426,1.25197 1.90512,2.4437 2.87362,3.57992l0.046063 0.0602363c0.604725,0.699213 1.22599,1.34882 1.84134,2.00906l78.5717 -253.415c3.54331,-11.5665 14.9988,-19.0004 27.2811,-18.7665l69.1571 0c6.2315,-30.5646 12.5858,-63.8835 23.204,-73.2875 6.80788,-5.95276 22.2603,-18.2327 71.3599,-40.7965l0.0933072 -0.157087 9.34843 -4.11969 4.59331 -2.04213 2.1189 -10.2413 0 -12.5516c-12.7276,-8.94568 -24.6012,-19.8839 -28.5792,-25.6843 -1.43622,-2.11654 -4.25197,-9.46418 -6.78898,-19.6725 -0.530315,0.381496 -1.09016,0.702756 -1.71378,0.907087 -5.31733,1.76929 -12.2823,-4.36654 -15.3543,-13.6902 -3.07087,-9.32481 -1.18465,-18.2917 4.25197,-20.0634 1.74803,-0.570473 3.64016,-0.246851 5.51103,0.66378 -7.79528,-39.4701 5.08465,-65.9315 26.6126,-79.4989 15.1169,-9.6756 29.2914,-13.337 42.2811,-13.8071 11.3386,-0.473622 21.7299,1.76811 31.4162,4.71851 4.60158,1.41732 8.9752,3.18662 12.991,4.95945 9.09213,3.77481 36.0213,14.8677 22.3193,27.4973 12.2906,14.9551 11.6079,36.7063 8.57835,57.8575 2.66339,-2.24055 5.54174,-3.23504 8.07757,-2.39055 5.43544,1.77165 7.32402,10.7386 4.25197,20.0634 -3.07205,9.32481 -9.91891,15.4595 -15.3555,13.6902 -0.698032,-0.229134 -1.33819,-0.587008 -1.91693,-1.03937 -2.54882,10.2791 -5.37993,17.6788 -6.82087,19.8047 -3.96496,5.78268 -15.776,16.6689 -28.4622,25.5992l0 12.6366 2.59488 10.3843 10.3949 4.72087 0.0283465 0.0448819c51.052,23.2937 67.5745,36.1595 74.3788,42.2067 10.728,9.40513 16.989,42.7217 23.2087,73.2875l81.0804 0c13.2272,0 24.3248,8.49686 27.2823,19.9465l71.2819 229.896c10.5874,-19.1965 17.6705,-39.5729 27.45,-59.0091 5.62914,-11.2417 13.0004,-22.2319 22.9772,-30.2965l2.06457 -29.537c1.59685,-0.976772 6.87166,-1.95 11.9539,-2.82992 -4.513,-12.789 -11.1791,-22.8118 -22.4669,-23.6067 -10.513,-0.7063 -17.2417,-1.8874 -19.1339,-12.7453 -0.707481,-3.8941 -0.707481,-8.02323 0.354331,-12.1547 -5.43189,-2.47914 -6.13937,-5.0752 -3.66142,-9.08741 -5.66339,-0.944883 -2.9504,-6.84449 -0.708662,-8.85119 -0.47126,-2.9504 -0.585827,-5.31142 -1.65236,-6.37323 -4.48701,-0.590552 -11.3374,-0.116929 -10.748,-5.66457 2.24528,-13.5721 17.1236,-21.1264 16.4162,-32.1012 -0.472441,-3.65788 -3.89292,-1.06181 -0.354331,-18.7642 1.65591,-8.37993 3.19134,-15.4606 7.44213,-21.5977 2.4815,-3.62126 1.26732,-4.89685 0.39567,-8.35158l-0.131102 -0.544489c-0.159449,-0.68504 -0.294095,-1.43032 -0.383859,-2.31496 -0.589371,-4.48465 0.237402,-8.49686 2.12835,-12.0378 0.505512,-0.937796 1.07126,-1.84488 1.68898,-2.72599l0.258662 -0.33189c0.555119,-0.762993 1.14213,-1.51181 1.77756,-2.2311l0.256299 -0.263386c0.661418,-0.732284 1.35827,-1.44685 2.10709,-2.13307l0.172441 -0.151181c0.788977,-0.715749 1.61929,-1.40906 2.49449,-2.07284l0.0602363 -0.046063c13.9961,-10.6087 38.3126,-14.5063 61.5969,-11.2973l0.0590552 0.00826772c1.47874,0.206693 2.94567,0.438189 4.41142,0.699213l0.349607 0.0614174c1.35709,0.246851 2.70591,0.520867 4.04528,0.818505l0.661418 0.142913c1.22599,0.279921 2.4437,0.582284 3.65315,0.903544l0.956694 0.252756c1.09961,0.302362 2.18622,0.627166 3.26575,0.964961l1.22599 0.38504c0.968505,0.315355 1.92166,0.651969 2.87362,0.998032l1.5 0.544489c0.838583,0.32126 1.66417,0.66378 2.48622,1.00866 0.572835,0.238583 1.15039,0.470079 1.71851,0.721654 0.721654,0.32126 1.42795,0.662599 2.14016,1.00158 0.636615,0.303544 1.27323,0.601182 1.89685,0.918898 0.615355,0.314173 1.21299,0.651969 1.82008,0.980316 0.673229,0.368504 1.35354,0.732284 2.01378,1.1185 0.53504,0.312992 1.04528,0.646063 1.56732,0.973229 0.690945,0.431103 1.39134,0.858662 2.06103,1.31102 0.467717,0.315355 0.914174,0.651969 1.3689,0.977954 0.683859,0.490158 1.37362,0.972048 2.03504,1.48465 0.433465,0.338977 0.846851,0.701575 1.2685,1.05236 0.636615,0.52441 1.2815,1.04291 1.89213,1.58977 0.458268,0.418111 0.892914,0.859843 1.33583,1.29213 0.526772,0.506693 1.06654,1.00158 1.5626,1.52599l0.113386 0.10748c21.4819,22.7244 25.1138,41.4709 21.8953,58.643 -3.90237,27.5634 -26.0445,49.0548 -24.0189,76.4859l1.95591 26.0953 1.82008 -0.248032c0.239764,0 0.595276,0 0.948426,0.11811z"/>
   </g>
  </g>
  <path class="fil2" d="M1024 0c565.538,0 1024,458.462 1024,1024 0,565.538 -458.462,1024 -1024,1024 -565.538,0 -1024,-458.462 -1024,-1024 0,-565.538 458.462,-1024 1024,-1024z"/>
  <g id="_286116960">
   <path id="_286122096" class="fil3" d="M1108.44 595.628c-5.39646,-1.77992 -12.2658,4.34646 -15.3402,13.6843 -3.07323,9.33544 -1.18937,18.3449 4.20945,20.1248 5.39646,1.77638 12.2669,-4.35 15.3402,-13.6878 3.07677,-9.33544 1.19055,-18.3449 -4.20945,-20.1213z"/>
   <path id="_286121904" class="fil3" d="M950.609 595.628c5.39882,-1.77992 12.2681,4.34882 15.3425,13.6843 3.07323,9.33544 1.18937,18.3449 -4.20827,20.1213 -5.4,1.77992 -12.2693,-4.34646 -15.3437,-13.6843 -3.07323,-9.33544 -1.18937,-18.3449 4.20945,-20.1213z"/>
   <path id="_286121616" class="fil4" d="M1057.94 694.782c63.1264,27.6732 82.0631,42.4264 89.5477,49.0524 11.5347,10.2071 17.915,48.254 24.7181,80.5583l-142.819 0 -142.818 0c6.80315,-32.3044 13.1858,-70.3512 24.7181,-80.5583 7.48465,-6.62599 25.728,-20.9988 88.8544,-48.6756l57.7985 -0.376772z"/>
   <path id="_286121592" class="fil5" d="M1057.94 694.782c63.1241,27.6732 82.0607,42.4264 89.5453,49.0524 11.5347,10.2071 17.915,48.254 24.7181,80.5583l-142.819 0 -142.815 0c6.80315,-32.3044 13.1835,-70.3512 24.7181,-80.5583 7.48229,-6.62599 25.7256,-20.9988 88.852,-48.6756l57.8008 -0.376772z"/>
   <path id="_286121664" class="fil6" d="M998.739 639.617l0 69.9721c16.8591,20.648 44.4449,19.9323 61.3004,0l0 -69.9721c0,-37.7835 -61.3004,-37.7835 -61.3004,0z"/>
   <path id="_286121472" class="fil7" d="M998.739 639.617l0 46.8485c11.5996,8.45434 22.7776,13.1906 30.6496,13.1906 7.87205,0 19.0536,-4.73622 30.6508,-13.1906l0 -46.8485c0,-37.7835 -61.3004,-37.7835 -61.3004,0z"/>
   <path id="_286121064" class="fil6" d="M1029.39 513.993c102.873,0 65.8772,124.299 59.1579,134.193 -7.40906,10.9122 -42.5374,39.8327 -59.1579,39.8327 -16.6205,0 -51.7453,-28.9205 -59.1544,-39.8327 -6.72284,-9.8941 -43.7162,-134.193 59.1544,-134.193z"/>
   <path id="_286120944" class="fil8" d="M1076.41 555.59c5.96693,32.6008 20.9103,29.5571 19.7256,67.813 4.41851,-27.4465 13.0205,-62.2075 -4.42559,-83.3493 13.7551,-12.5882 -13.1858,-23.6398 -22.2508,-27.5079 -4.07363,-1.73858 -8.39646,-3.50433 -13.0902,-4.92756 -9.60119,-2.91024 -20.0138,-5.19449 -31.3051,-4.76811 -13.0288,0.493701 -27.1902,4.20827 -42.3886,13.8543 -25.2236,16.0122 -38.68,49.6548 -20.6551,101.386 2.7378,-18.2291 2.39528,-32.1969 14.9374,-44.5866 13.0937,-12.9354 42.6189,22.2047 99.4524,-17.9138z"/>
   <path id="_286120848" class="fil9" d="M1029.23 724.806c0,0 42.7737,10.2118 42.7737,12.8008 0,2.58898 -16.2768,86.7851 -16.2768,86.7851l-58.0713 0 -6.65552 -86.4142 38.23 -13.1717z"/>
   <polygon id="_286120824" class="fil10" points="1060.04,695.704 1060.04,709.589 1046.72,824.392 1069.62,824.392 1094.81,773.26 1070.76,757.234 1100.14,743.496 1073.13,701.573 "/>
   <polygon id="_286121160" class="fil10" points="998.739,695.776 998.737,709.589 1012.18,824.392 989.29,824.392 964.106,773.26 988.145,757.234 958.764,743.496 982.776,702.865 "/>
   <polygon id="_286120656" class="fil11" points="1060.04,686.465 1062.72,696.886 1055.22,751.164 1029.23,724.809 "/>
   <path id="_286120632" class="fil12" d="M1042.57 739.005l-7.42205 11.4992c-3.8374,0 -7.67835,0 -11.5146,0l-7.4256 -11.4992 13.0228 -14.198 13.3394 14.198z"/>
   <polygon id="_286120728" class="fil13" points="1035.15,750.504 1045.71,824.392 1013.06,824.392 1023.63,750.504 "/>
   <polygon id="_286121016" class="fil11" points="998.739,686.465 996.624,696.717 1003.67,751.706 1029.23,724.809 "/>
   <path id="_286121328" class="fil14" d="M1114 824.392l-4.88977 0c0.218504,-21.7488 0.218504,-37.4233 0.218504,-37.4233 0,0 2.16614,16.2898 4.67126,37.4233z"/>
   <path id="_286120152" class="fil14" d="M944.773 824.392l4.89331 0c-0.218504,-21.7488 -0.218504,-37.4233 -0.218504,-37.4233 0,0 -2.16732,16.2898 -4.67481,37.4233z"/>
   <path id="_286119888" class="fil15" d="M818.955 817.201l432.841 0c13.2295,0 24.3142,8.50512 27.2173,19.9299l170.68 550.916 0.0248032 -0.00708662c0.199606,0.647245 0.372048,1.29331 0.516142,1.94173l-830.194 0c0.236221,-1.0748 0.54567,-2.1248 0.921261,-3.14646l170.655 -550.833 26.8666 7.07599 -26.876 -7.13268c3.56457,-11.5051 15.0047,-18.9437 27.3473,-18.7441z"/>
   <polygon id="_286120536" class="fil16" points="1265.47,1395.42 1265.47,1545.2 1215.79,1545.2 1215.79,1395.42 "/>
   <polygon id="_286120344" class="fil16" points="854.485,1395.42 854.485,1545.2 804.812,1545.2 804.812,1395.42 "/>
   <rect id="_286120128" class="fil17" x="619.951" y="1386.15" width="830.373" height="34.3884"/>
   <path id="_286119096" class="fil18" d="M549.121 906.97l-3.90473 51.9319c-2.74252,2.1 68.6221,10.5532 81.3733,12.5138l0 -0.00354331c4.53662,-22.4292 10.7079,-48.3 29.0351,-49.5804 10.598,-0.739371 17.2299,-1.85906 19.1504,-12.7311 0.700394,-3.96142 0.701575,-8.00079 -0.379134,-12.1606 5.44961,-2.50158 6.18308,-5.07166 3.71575,-9.0756 5.6563,-0.99567 2.93032,-6.94607 0.649607,-8.94922 0.50315,-2.85827 0.633071,-5.27953 1.65945,-6.33662 4.52126,-0.54567 11.4284,-0.068504 10.7457,-5.64331 -2.15906,-13.5614 -17.1071,-21.1252 -16.3488,-32.1591 0.441733,-3.62481 3.8374,-1.02874 0.376772,-18.7512 -1.63583,-8.38111 -3.17953,-15.5043 -7.48701,-21.6732 -3.10276,-4.44567 -0.516142,-5.32678 0.168898,-11.198 0.518504,-4.43032 -0.248032,-8.49331 -2.16851,-12.0614 -16.2827,-30.2386 -93.7536,-30.4311 -121.166,3.5067 -49.0441,60.7193 7.83071,89.1237 4.57914,132.371z"/>
   <path id="_286119624" class="fil19" d="M549.121 906.97l-0.00236221 0.0259843c6.92245,6.52441 14.9209,4.47874 19.6099,1.65354 15.5185,-9.35316 18.5291,-55.7422 18.3886,-58.7563 -1.27323,-27.2303 16.9843,-20.4295 16.9843,-7.51772l6.57402 0c0,-3.95433 1.04055,-17.8536 2.92796,-20.9717 13.2189,-21.8445 47.1685,-21.0154 52.6111,-30.7547 -0.0413386,-1.95827 1.21536,-3.66496 1.66181,-7.49528 0.518504,-4.43032 -0.248032,-8.49331 -2.16851,-12.0614 -15.8091,-29.3587 -89.2973,-30.3933 -118.649,0.630709 -54.5457,57.6674 5.48504,89.7142 2.06221,135.247z"/>
   <path id="_286119168" class="fil20" d="M591.697 825.494c5.39646,0 14.6894,10.4965 12.9236,23.4957 -0.603544,4.44095 -1.47402,9.56221 -2.49685,14.3811 -1.97008,9.28583 6.72166,17.1744 -6.80197,17.4473 -3.48071,0.0708662 -8.47796,-18.828 -10.2437,-31.8284 -1.76693,-12.9992 1.22244,-23.4957 6.6189,-23.4957z"/>
   <path id="_286119768" class="fil21" d="M596.195 838.158c2.25236,0 6.13229,5.16496 5.39528,11.5606 -0.73819,6.39567 -2.42835,15.6602 -3.88229,15.6602 -1.45394,0 -3.53977,-9.26457 -4.27677,-15.6602 -0.73819,-6.39567 0.510237,-11.5606 2.76378,-11.5606z"/>
   <path id="_286119432" class="fil22" d="M545.321 932.78c-0.230315,0.0283465 -0.532678,0.080315 -0.956694,0.186614 -5.96103,1.49764 -11.3221,18.7028 -7.24371,25.0146 3.8315,5.92914 24.6166,6.74646 34.0063,7.69961 12.1996,1.24016 24.5764,2.41772 36.104,5.04331 14.5075,3.30236 29.9067,8.5878 40.4752,14.7248l-2.56772 -37.154c-2.15906,-1.32756 -10.6878,-2.57008 -16.7847,-3.68859l0.090945 -0.39567 -83.1237 -11.4307z"/>
   <path id="_286118496" class="fil18" d="M864.368 1159.49c0,0 19.0736,-0.962599 36.0638,-13.9441 0,0 35.674,-6.63898 33.3839,-13.3382 0,0 -3.03071,-11.3221 -24.6201,-4.92284l-14.7709 4.92284c0,0 -6.33544,-5.25473 8.57127,-11.3457l4.16693 -4.80827 4.88859 0.16063c0,0 6.5315,3.64607 13.9854,1.88268 0,0 6.73111,1.92402 16.1882,9.13583 0,0 6.65197,20.1969 17.5512,9.45709 0,0 0.16063,-3.20551 -6.65197,-10.578l-19.7138 -20.5158 7.1315 -0.32126 12.0225 3.60591c0,0 10.2189,-0.0791339 7.73386,-7.01221l-16.1079 -6.45119 -18.6732 -4.00748 -16.9099 2.80512 -9.45709 1.20236 -3.52559 4.00748 -8.73544 0.400394 -22.7599 16.3488 -16.3902 9.85749 0.682678 34.3807 15.9461 -0.922442z"/>
   <path id="_286118520" class="fil23" d="M622.089 963.464l-18.0532 -5.15315c-128.15,-23.2016 -126.952,80.2548 -132.585,170.098 -3.40394,54.293 -7.17402,113.035 -7.45276,115.167l192.127 -1.17047c-3.0567,-22.6819 -4.59331,-48.2433 2.22284,-89.0481 66.4619,35.602 92.0741,39.4394 180.49,23.9492 0.257481,-0.0496063 0.514961,-0.103937 0.77126,-0.155906 6.57284,-1.28976 13.6465,-3.3378 19.0063,-7.53662 5.84292,-4.57678 9.44883,-10.5815 11.7083,-17.6091 4.68426,-14.5665 -0.0779528,-30.1914 -12.1677,-39.6118 -7.58623,-5.91142 -17.2134,-8.6693 -26.7768,-7.48347 -22.474,2.78858 -46.9618,5.25473 -69.6024,3.76063 -34.1256,-2.25236 -47.6492,-11.6976 -64.0276,-41.3481 -10.6205,-19.226 -17.7473,-39.6426 -27.5268,-59.1189 -5.96811,-11.8878 -13.7634,-23.3669 -24.437,-31.5166 -7.0878,-5.41182 -15.1949,-9.90119 -23.6965,-13.2225z"/>
   <path id="_286118568" class="fil24" d="M622.089 963.464l-4.29213 -1.2248c-3.24922,0.15 -6.53977,0.887009 -9.86576,2.30315 -31.0878,13.2319 -30.013,47.5016 -17.7827,78.5599 7.20355,18.2965 46.226,90.4028 68.4225,110.374 1.69725,0.908268 3.36142,1.79173 5.0067,2.65984 15.6201,1.60039 15.5882,-70.9619 35.9008,-85.7434 -0.574016,-0.999213 -1.14921,-2.02087 -1.72914,-3.06969 -10.6205,-19.2272 -17.7461,-39.6437 -27.5256,-59.1201 -5.9693,-11.889 -13.7646,-23.3658 -24.4382,-31.5166 -7.0878,-5.41182 -15.1949,-9.90119 -23.6965,-13.2225z"/>
   <path id="_286118856" class="fil24" d="M699.479 1070.39c-20.3126,14.7815 -20.2807,87.3438 -35.9008,85.7434 40.3772,21.2799 65.7638,30.1866 101.754,29.7921 19.8461,-0.217323 42.9177,-3.26339 73.506,-8.62205l0.77126 -0.155906c6.57284,-1.28976 13.6465,-3.3378 19.0063,-7.53662 2.64213,-2.07047 4.82599,-4.4315 6.63544,-7.04764 2.19331,-3.1689 3.83504,-6.71221 5.07284,-10.5614 3.11221,-9.67678 2.0563,-19.8213 -2.54882,-28.3028 -2.32795,-4.28622 -5.56063,-8.14725 -9.61891,-11.3091 -7.58623,-5.91142 -17.2134,-8.6693 -26.7768,-7.48347 -13.5992,1.68662 -27.9366,3.2563 -42.1559,3.90237 -9.27757,0.420473 -18.5067,0.447638 -27.4465,-0.141732 -32.9197,-2.17323 -46.6666,-11.0374 -62.2985,-38.2772z"/>
   <path id="_286118616" class="fil25" d="M1498.88 906.97l3.90473 51.9319c2.74252,2.1 -68.6221,10.5532 -81.3721,12.5138l-0.0011811 -0.00354331c-4.53544,-22.4292 -10.7079,-48.3 -29.0351,-49.5804 -10.598,-0.739371 -17.2299,-1.85906 -19.1504,-12.7311 -0.699213,-3.96142 -0.701575,-8.00079 0.380315,-12.1606 -5.45079,-2.50158 -6.18426,-5.07166 -3.71693,-9.0756 -5.6563,-0.99567 -2.93032,-6.94607 -0.649607,-8.94922 -0.50315,-2.85827 -0.633071,-5.27953 -1.65945,-6.33662 -4.52126,-0.54567 -11.4272,-0.068504 -10.7457,-5.64331 2.15906,-13.5614 17.1083,-21.1252 16.3488,-32.1591 -0.440552,-3.62481 -3.8374,-1.02874 -0.376772,-18.7512 1.63701,-8.38111 3.18071,-15.5043 7.48701,-21.6732 3.10394,-4.44567 0.516142,-5.32678 -0.168898,-11.198 -0.518504,-4.43032 0.248032,-8.49331 2.16851,-12.0614 16.2827,-30.2386 93.7536,-30.4311 121.166,3.5067 49.0453,60.7193 -7.83071,89.1237 -4.57914,132.371z"/>
   <path id="_286118136" class="fil19" d="M1498.88 906.97l0.00236221 0.0259843c-6.92245,6.52441 -14.9209,4.47874 -19.6099,1.65354 -15.5185,-9.35316 -18.5291,-55.7422 -18.3886,-58.7563 1.27441,-27.2303 -16.9843,-20.4295 -16.9843,-7.51772l-6.57402 0c0,-3.95433 -1.04055,-17.8536 -2.92677,-20.9717 -13.2189,-21.8445 -47.1697,-21.0154 -52.6122,-30.7547 0.0413386,-1.95827 -1.21536,-3.66496 -1.66181,-7.49528 -0.518504,-4.43032 0.248032,-8.49331 2.16851,-12.0614 15.8091,-29.3587 89.2973,-30.3933 118.649,0.630709 54.5457,57.6674 -5.48504,89.7142 -2.06221,135.247z"/>
   <path id="_286117872" class="fil20" d="M1456.3 825.494c-5.39646,0 -14.6894,10.4965 -12.9236,23.4957 0.603544,4.44095 1.47402,9.56221 2.49685,14.3811 1.97126,9.28583 -6.72166,17.1744 6.80197,17.4473 3.48189,0.0708662 8.47796,-18.828 10.2437,-31.8284 1.76693,-12.9992 -1.22244,-23.4957 -6.6189,-23.4957z"/>
   <path id="_286118016" class="fil21" d="M1451.81 838.158c-2.25355,0 -6.13347,5.16496 -5.39528,11.5606 0.737008,6.39567 2.42835,15.6602 3.88111,15.6602 1.45394,0 3.53977,-9.26457 4.27677,-15.6602 0.73819,-6.39567 -0.510237,-11.5606 -2.7626,-11.5606z"/>
   <path id="_286117656" class="fil22" d="M1502.68 932.78c0.231496,0.0283465 0.533859,0.080315 0.956694,0.186614 5.96103,1.49764 11.3221,18.7028 7.24371,25.0146 -3.8315,5.92914 -24.6166,6.74646 -34.0051,7.69961 -12.2008,1.24016 -24.5776,2.41772 -36.1051,5.04331 -14.5063,3.30236 -29.9055,8.5878 -40.4752,14.7248l2.56772 -37.154c2.16024,-1.32756 10.6878,-2.57008 16.7847,-3.68859l-0.0897638 -0.39567 83.1225 -11.4307z"/>
   <path id="_286116888" class="fil23" d="M1425.91 963.464l18.0532 -5.15315c128.151,-23.2016 126.952,80.2548 132.585,170.098 3.40394,54.293 7.17402,113.035 7.45276,115.167l-178.994 -1.09134 -14.2925 -46.5485 -1.06181 -42.5788 -39.4028 -86.0351c10.6205,-19.226 17.7473,-39.6426 27.5268,-59.1189 5.96811,-11.8878 13.7634,-23.3669 24.437,-31.5166 7.0878,-5.41182 15.1949,-9.90119 23.6965,-13.2225z"/>
   <polygon id="_286117176" class="fil26" points="1002.21,844.442 1076.32,844.442 1092.63,928.795 985.901,928.795 "/>
   <polygon id="_286117248" class="fil27" points="979.563,852.031 1050.62,859.282 1042.31,946.407 939.97,935.964 "/>
   <path id="_286117032" class="fil25" d="M1277.03 1072.84c0,0 -5.69174,-13.4882 -19.4977,-22.324 0,0 -12.313,-24.1606 -16.5378,-20.7555 -11.0386,-4.25788 12.9189,39.5351 -9.94607,9.50434 0,0 -0.379134,-5.35394 2.33858,-14.0563 0,0 12.8055,-10.0854 2.21221,-15.1217 0,0 -2.35158,0.724016 -5.87717,7.56379l-9.61182 19.5791 -2.1 -5.05394 -0.553937 -9.60473c0,0 -2.73544,-7.34056 -7.07835,-3.73347l-0.425197 13.2945c-0.351969,21.8575 6.38977,24.5433 35.9374,52.2331l11.3965 9.22324 24.5882 -9.50316 -4.84489 -11.2453z"/>
   <path id="_286117224" class="fil24" d="M1425.91 963.464l4.29331 -1.2248c3.24803,0.15 6.53977,0.887009 9.86457,2.30315 31.0878,13.2319 30.0118,47.5004 17.7839,78.5599 -7.20473,18.2953 -47.1969,90.4028 -69.3934,110.375 -46.4741,74.9174 -74.3977,72.2256 -137.411,-28.3488l-0.601182 -0.507874c-5.1437,-4.28977 -10.3618,-9.48544 -13.0453,-15.7441 -1.32165,-3.08622 -2.10118,-6.2067 -2.43189,-9.36969 -0.399213,-3.83386 -0.135827,-7.72914 0.629528,-11.7012 1.92166,-9.98032 7.72323,-18.3673 15.8386,-23.5925 4.10079,-2.63977 8.79095,-4.47166 13.8709,-5.29489 9.49253,-1.53662 19.2614,0.672048 27.078,6.30827 40.317,18.6177 13.0323,80.4757 56.1355,5.16615 0.572835,-0.999213 1.14803,-2.02087 1.72795,-3.06969 10.6205,-19.2272 17.7473,-39.6437 27.5256,-59.1201 5.96811,-11.889 13.7646,-23.3658 24.4382,-31.5166 7.0878,-5.41182 15.1949,-9.90001 23.6965,-13.2225z"/>
  </g>
 </g>
</svg>
