<?xml version="1.0" encoding="UTF-8"?>
<!DOCTYPE svg PUBLIC "-//W3C//DTD SVG 1.1//EN" "http://www.w3.org/Graphics/SVG/1.1/DTD/svg11.dtd">
<!-- Creator: CorelDRAW -->
<svg xmlns="http://www.w3.org/2000/svg" xml:space="preserve" width="6.82666in" height="6.82666in" style="shape-rendering:geometricPrecision; text-rendering:geometricPrecision; image-rendering:optimizeQuality; fill-rule:evenodd; clip-rule:evenodd"
viewBox="0 0 6.82666 6.82666"
 xmlns:xlink="http://www.w3.org/1999/xlink">
 <defs>
  <style type="text/css">
   <![CDATA[
    .fil17 {fill:none}
    .fil8 {fill:#202020}
    .fil0 {fill:#2F2F2F}
    .fil10 {fill:#444444}
    .fil15 {fill:#6A6A6A}
    .fil13 {fill:#838383}
    .fil11 {fill:#8B8C8C}
    .fil7 {fill:#9E9E9E}
    .fil16 {fill:#B3B4B4}
    .fil5 {fill:#BCBCBC}
    .fil6 {fill:#BFC0C0}
    .fil1 {fill:#CBCBCC}
    .fil4 {fill:#D1D1D1}
    .fil14 {fill:#E1E1E2}
    .fil2 {fill:#F3F4F4}
    .fil12 {fill:white}
    .fil3 {fill:#3A3A3A;fill-rule:nonzero}
    .fil9 {fill:#444444;fill-rule:nonzero}
   ]]>
  </style>
 </defs>
 <g id="Layer_x0020_1">
  <metadata id="CorelCorpID_0Corel-Layer"/>
  <path class="fil0" d="M1.86667 1.04124l3.09333 0c0.0294528,0 0.0533346,0.0238819 0.0533346,0.0533346l0 1.70667c0,0.0294528 -0.0238819,0.0533346 -0.0533346,0.0533346l-3.09333 0c-0.0294528,0 -0.0533346,-0.0238819 -0.0533346,-0.0533346l0 -1.70667c0,-0.0294528 0.0238819,-0.0533346 0.0533346,-0.0533346z"/>
  <polygon class="fil1" points="1.92,1.14791 1.92,2.74791 4.90667,2.74791 4.90667,1.14791 "/>
  <polygon class="fil2" points="1.92,1.14791 1.92,2.39753 4.90667,2.39753 4.90667,1.14791 "/>
  <path class="fil3" d="M1.16913 4.96157c0.00859449,-0.0321654 -0.0105118,-0.0652087 -0.0426772,-0.0737992 -0.0321654,-0.00859449 -0.0652087,0.0105118 -0.0738031,0.0426732l-0.197252 0.736177c-0.00859449,0.0321614 0.0105118,0.0652087 0.0426732,0.0737992 0.0321654,0.00859449 0.0652087,-0.0105118 0.0738031,-0.0426772l0.197256 -0.736173z"/>
  <path class="fil3" d="M2.4992 4.33914c-0.0333386,0 -0.0603661,0.0270236 -0.0603661,0.0603583 0,0.0333386 0.0270276,0.0603622 0.0603661,0.0603622l1.0865 0c0.0333346,0 0.0603622,-0.0270236 0.0603622,-0.0603622 0,-0.0333346 -0.0270276,-0.0603583 -0.0603622,-0.0603583l-1.0865 0z"/>
  <path class="fil3" d="M2.74064 4.3995c0,-0.0333346 -0.0270276,-0.0603583 -0.0603622,-0.0603583 -0.0333386,0 -0.0603622,0.0270236 -0.0603622,0.0603583l0 1.26759c0,0.0333386 0.0270236,0.0603622 0.0603622,0.0603622 0.0333346,0 0.0603622,-0.0270236 0.0603622,-0.0603622l0 -1.26759z"/>
  <path class="fil4" d="M2.44074 4.32943c0,0 0.0582205,-0.00293701 0.110079,-0.042563 0,0 0.10889,-0.0202638 0.101902,-0.0407087 0,0 -0.00925591,-0.034563 -0.0751496,-0.0150315l-0.0450866 0.0150315c0,0 -0.0193386,-0.0160433 0.0261614,-0.0346378l0.0127205 -0.0146732 0.0149213 0.000488189c0,0 0.019937,0.0111299 0.042689,0.00574803 0,0 0.0205472,0.00587402 0.0494094,0.0278858 0,0 0.0203071,0.0616457 0.0535709,0.0288661 0,0 0.000492126,-0.00978346 -0.0202992,-0.0322874l-0.0601772 -0.062622 0.0217717 -0.000980315 0.0366929 0.0110079c0,0 0.0311929,-0.000244094 0.0236063,-0.0214016l-0.0491654 -0.0196929 -0.0569961 -0.0122323 -0.0516142 0.00856299 -0.0288661 0.00366929 -0.0107638 0.0122283 -0.0266614 0.00122441 -0.0694724 0.0499055 -0.0500276 0.0300866 0.00208268 0.104941 0.0486732 -0.00281496z"/>
  <rect class="fil5" x="1.49875" y="3.62129" width="0.17061" height="0.200283"/>
  <path class="fil4" d="M1.58405 3.22629c0.107543,0 0.19472,0.11126 0.19472,0.248496 0,0.13724 -0.0871772,0.248496 -0.19472,0.248496 -0.107539,0 -0.194717,-0.111256 -0.194717,-0.248496 0,-0.137236 0.0871772,-0.248496 0.194717,-0.248496z"/>
  <path class="fil6" d="M1.70449 3.78092l-0.0523504 -0.0149409c-0.0189213,-0.00342913 -0.0383346,-0.00532677 -0.057563,-0.00409449 -0.0204252,0.0013189 -0.0408465,0.00525197 -0.0606417,0.0103543l-0.00407874 0.00105118c-0.0489252,0.015811 -0.0968465,0.0446732 -0.129713,0.0846181 -0.028874,0.0350906 -0.046937,0.0775197 -0.0475197,0.122984 0.00125591,0.0549055 -0.00119291,0.104402 -0.0031063,0.159016 -0.0045748,0.130421 -0.0671339,0.505772 -0.0656299,0.54078 0.0166772,0.388122 0.474689,0.0558268 0.579866,0.30248 0.0378661,0.140917 0.0829094,0.279902 0.125551,0.419472l0.000488189 -0.000153543 0.0187874 0.063878c0.0116496,0.0350512 0.0339134,0.0659291 0.0661457,0.0846496 0.0331693,0.0192638 0.0721299,0.0244803 0.10922,0.0147205l0.00227165 -0.000598425c0.0355906,-0.0115276 0.0669685,-0.0339646 0.0859134,-0.0665984 0.0192283,-0.0331142 0.0219331,-0.0725709 0.0147913,-0.10961 -0.0336063,-0.174402 -0.113539,-0.52915 -0.25465,-0.652929 -0.059689,-0.0523622 -0.177669,-0.104831 -0.251598,-0.111543 0.0385394,-0.0692323 0.00880315,-0.172157 0.0289606,-0.292854 0.19274,0.10324 0.267012,0.11437 0.523413,0.0694528 0.000748031,-0.000145669 0.00149606,-0.000307087 0.00223622,-0.000452756 0.0190591,-0.00374409 0.0395748,-0.0096811 0.0551181,-0.0218583 0.0169449,-0.0132717 0.0273976,-0.030685 0.0339528,-0.051063 0.0135827,-0.0422441 -0.000224409,-0.0875551 -0.0352835,-0.114874 -0.022,-0.0171417 -0.0499213,-0.0251417 -0.0776535,-0.0217008 -0.0651732,0.00808268 -0.136185,0.0152362 -0.201839,0.0109055 -0.0989646,-0.0065315 -0.138181,-0.0339213 -0.185681,-0.119906 -0.0307953,-0.055752 -0.0514606,-0.114961 -0.0798228,-0.171441 -0.0173071,-0.0344764 -0.0399173,-0.0677598 -0.0708661,-0.0913976 -0.0205551,-0.0156929 -0.044063,-0.0287087 -0.0687205,-0.0383465z"/>
  <path class="fil7" d="M1.70449 3.78092l-0.0523504 -0.0149409c-0.0189213,-0.00342913 -0.0383346,-0.00532677 -0.057563,-0.00409449 -0.0204252,0.0013189 -0.0408465,0.00525197 -0.0606417,0.0103543l-0.00407874 0.00105118c-0.0489252,0.015811 -0.0968465,0.0446732 -0.129713,0.0846181 -0.028874,0.0350906 -0.046937,0.0775197 -0.0475197,0.122984 0.00125591,0.0549055 -0.00119291,0.104402 -0.0031063,0.159016 -0.00366142,0.104378 -0.0444567,0.365602 -0.0598346,0.483724l0.491433 0c0.0378543,-0.0692205 0.00844094,-0.171807 0.0285197,-0.292031 0.19274,0.10324 0.267012,0.11437 0.523413,0.0694528 0.000748031,-0.000145669 0.00149606,-0.000307087 0.00223622,-0.000452756 0.0190591,-0.00374409 0.0395748,-0.0096811 0.0551181,-0.0218583 0.0169449,-0.0132717 0.0273976,-0.030685 0.0339528,-0.051063 0.0135827,-0.0422441 -0.000224409,-0.0875551 -0.0352835,-0.114874 -0.022,-0.0171417 -0.0499213,-0.0251417 -0.0776535,-0.0217008 -0.0651732,0.00808268 -0.136185,0.0152362 -0.201839,0.0109055 -0.0989646,-0.0065315 -0.138181,-0.0339213 -0.185681,-0.119906 -0.0307953,-0.055752 -0.0514606,-0.114961 -0.0798228,-0.171441 -0.0173071,-0.0344764 -0.0399173,-0.0677598 -0.0708661,-0.0913976 -0.0205551,-0.0156929 -0.044063,-0.0287087 -0.0687205,-0.0383465z"/>
  <path class="fil8" d="M2.02395 5.62496c0,0 0.741795,0.0018622 0.291154,-0.157626 0,0 -0.318969,-0.109413 -0.291154,0.157626z"/>
  <path class="fil3" d="M0.988984 3.96915c-0.00611811,-0.032685 -0.0375787,-0.0542244 -0.0702638,-0.0481024 -0.0326811,0.00612205 -0.0542205,0.0375787 -0.0480984,0.0702638l0.181083 0.96578 0.0591811 -0.0110827 -0.0593268 0.011126c0.00549213,0.0292795 0.0312717,0.0496299 0.0600787,0.0492402l0.548449 0 0.0670118 0.666614c0.00325591,0.0330748 0.0327126,0.057248 0.0657874,0.0539921 0.0330748,-0.00325197 0.057248,-0.0327087 0.0539921,-0.0657835l-0.0720354 -0.716559c-0.000728346,-0.0327008 -0.0274646,-0.0589921 -0.0603425,-0.0589921l-0.553669 0 -0.171846 -0.916496z"/>
  <path class="fil9" d="M2.68028 4.21914c-0.0333386,0 -0.0603622,0.0270236 -0.0603622,0.0603622 0,0.0333346 0.0270236,0.0603583 0.0603622,0.0603583l0.422528 0c0.028685,0 0.0526929,-0.0200079 0.0588386,-0.0468307l0.179303 -0.537917c0.0104173,-0.0315118 -0.0066811,-0.0655039 -0.0381969,-0.0759252 -0.0315118,-0.0104173 -0.0655039,0.00668504 -0.0759213,0.0382008l-0.167252 0.501752 -0.379299 0z"/>
  <path class="fil8" d="M1.58581 3.50405l0.0126417 -0.0497559 0.0675354 -0.0558543c0,0 0.0971535,-0.0429843 0.0986772,-0.0724567 0.0117283,-0.226626 -0.679181,-0.126524 -0.335953,0.318055l0.0231535 0.00424803 0.0465236 -0.101413 0.0448071 -0.022185c-0.0787323,-0.0890984 0.0245984,-0.218331 0.0426142,-0.0206378z"/>
  <path class="fil3" d="M5.65754 4.96157c-0.00859449,-0.0321654 0.0105118,-0.0652087 0.0426772,-0.0737992 0.0321654,-0.00859449 0.0652087,0.0105118 0.0738031,0.0426732l0.197252 0.736177c0.00859449,0.0321614 -0.0105118,0.0652087 -0.0426772,0.0737992 -0.0321614,0.00859449 -0.0652047,-0.0105118 -0.0737992,-0.0426772l-0.197256 -0.736173z"/>
  <path class="fil3" d="M4.32747 4.33914c0.0333386,0 0.0603661,0.0270236 0.0603661,0.0603583 0,0.0333386 -0.0270276,0.0603622 -0.0603661,0.0603622l-1.0865 0c-0.0333386,0 -0.0603622,-0.0270236 -0.0603622,-0.0603622 0,-0.0333346 0.0270236,-0.0603583 0.0603622,-0.0603583l1.0865 0z"/>
  <path class="fil3" d="M4.08602 4.3995c0,-0.0333346 0.0270276,-0.0603583 0.0603622,-0.0603583 0.0333346,0 0.0603622,0.0270236 0.0603622,0.0603583l0 1.26759c0,0.0333386 -0.0270276,0.0603622 -0.0603622,0.0603622 -0.0333346,0 -0.0603622,-0.0270236 -0.0603622,-0.0603622l0 -1.26759z"/>
  <path class="fil4" d="M4.38593 4.32943c0,0 -0.0582205,-0.00293701 -0.110079,-0.042563 0,0 -0.10889,-0.0202638 -0.101902,-0.0407087 0,0 0.00925591,-0.034563 0.0751496,-0.0150315l0.0450866 0.0150315c0,0 0.0193386,-0.0160433 -0.0261614,-0.0346378l-0.0127205 -0.0146732 -0.0149213 0.000488189c0,0 -0.019937,0.0111299 -0.042689,0.00574803 0,0 -0.0205472,0.00587402 -0.0494094,0.0278858 0,0 -0.0203071,0.0616457 -0.0535748,0.0288661 0,0 -0.000488189,-0.00978346 0.0203031,-0.0322874l0.0601772 -0.062622 -0.0217717 -0.000980315 -0.0366929 0.0110079c0,0 -0.0311929,-0.000244094 -0.0236063,-0.0214016l0.0491654 -0.0196929 0.0569961 -0.0122323 0.0516142 0.00856299 0.0288661 0.00366929 0.0107638 0.0122283 0.0266614 0.00122441 0.0694724 0.0499055 0.0500276 0.0300866 -0.00208268 0.104941 -0.0486732 -0.00281496z"/>
  <rect class="fil5" x="5.15731" y="3.62129" width="0.17061" height="0.200283"/>
  <path class="fil4" d="M5.24261 3.22629c-0.107539,0 -0.194717,0.11126 -0.194717,0.248496 0,0.13724 0.0871772,0.248496 0.194717,0.248496 0.107543,0 0.19472,-0.111256 0.19472,-0.248496 0,-0.137236 -0.0871772,-0.248496 -0.19472,-0.248496z"/>
  <path class="fil10" d="M5.12218 3.78092l0.0523504 -0.0149409c0.0189213,-0.00342913 0.0383346,-0.00532677 0.057563,-0.00409449 0.0204252,0.0013189 0.0408465,0.00525197 0.0606417,0.0103543l0.00407874 0.00105118c0.0489252,0.015811 0.0968465,0.0446732 0.129713,0.0846181 0.028874,0.0350906 0.046937,0.0775197 0.0475197,0.122984 -0.00125591,0.0549055 0.00119291,0.104402 0.0031063,0.159016 0.0045748,0.130421 0.0671339,0.505772 0.0656299,0.54078 -0.0166772,0.388122 -0.474689,0.0558268 -0.579866,0.30248 -0.0378661,0.140917 -0.0829094,0.279902 -0.125551,0.419472l-0.000488189 -0.000153543 -0.0187874 0.063878c-0.0116535,0.0350512 -0.0339134,0.0659291 -0.0661496,0.0846496 -0.0331654,0.0192638 -0.072126,0.0244803 -0.109217,0.0147205l-0.00227165 -0.000598425c-0.0355906,-0.0115276 -0.0669685,-0.0339646 -0.0859134,-0.0665984 -0.0192283,-0.0331142 -0.0219331,-0.0725709 -0.0147953,-0.10961 0.0336102,-0.174402 0.113543,-0.52915 0.254654,-0.652929 0.059685,-0.0523622 0.177669,-0.104831 0.251598,-0.111543 -0.0385394,-0.0692323 -0.00880315,-0.172157 -0.0289606,-0.292854 -0.19274,0.10324 -0.267012,0.11437 -0.523413,0.0694528 -0.000748031,-0.000145669 -0.00149606,-0.000307087 -0.00223622,-0.000452756 -0.0190591,-0.00374409 -0.0395748,-0.0096811 -0.0551181,-0.0218583 -0.0169449,-0.0132717 -0.0273976,-0.030685 -0.0339528,-0.051063 -0.0135866,-0.0422441 0.000224409,-0.0875551 0.0352835,-0.114874 0.022,-0.0171417 0.0499213,-0.0251417 0.0776496,-0.0217008 0.0651732,0.00808268 0.136189,0.0152362 0.201843,0.0109055 0.0989646,-0.0065315 0.138181,-0.0339213 0.185677,-0.119906 0.0307992,-0.055752 0.0514646,-0.114961 0.0798268,-0.171441 0.0173071,-0.0344764 0.0399134,-0.0677598 0.0708661,-0.0913976 0.0205551,-0.0156929 0.044063,-0.0287087 0.0687205,-0.0383465z"/>
  <path class="fil11" d="M5.12218 3.78092l0.0523504 -0.0149409c0.0189213,-0.00342913 0.0383346,-0.00532677 0.057563,-0.00409449 0.0204252,0.0013189 0.0408465,0.00525197 0.0606417,0.0103543l0.00407874 0.00105118c0.0489252,0.015811 0.0968465,0.0446732 0.129713,0.0846181 0.028874,0.0350906 0.046937,0.0775197 0.0475197,0.122984 -0.00125591,0.0549055 0.00119291,0.104402 0.0031063,0.159016 0.00366142,0.104378 0.0444567,0.365602 0.0598346,0.483724l-0.491433 0c-0.0378543,-0.0692205 -0.00844094,-0.171807 -0.0285197,-0.292031 -0.19274,0.10324 -0.267012,0.11437 -0.523413,0.0694528 -0.000748031,-0.000145669 -0.00149606,-0.000307087 -0.00223622,-0.000452756 -0.0190591,-0.00374409 -0.0395748,-0.0096811 -0.0551181,-0.0218583 -0.0169449,-0.0132717 -0.0273976,-0.030685 -0.0339528,-0.051063 -0.0135866,-0.0422441 0.000224409,-0.0875551 0.0352835,-0.114874 0.022,-0.0171417 0.0499213,-0.0251417 0.0776496,-0.0217008 0.0651732,0.00808268 0.136189,0.0152362 0.201843,0.0109055 0.0989646,-0.0065315 0.138181,-0.0339213 0.185677,-0.119906 0.0307992,-0.055752 0.0514646,-0.114961 0.0798268,-0.171441 0.0173071,-0.0344764 0.0399134,-0.0677598 0.0708661,-0.0913976 0.0205551,-0.0156929 0.044063,-0.0287087 0.0687205,-0.0383465z"/>
  <path class="fil8" d="M4.80272 5.62496c0,0 -0.741795,0.0018622 -0.291154,-0.157626 0,0 0.318969,-0.109413 0.291154,0.157626z"/>
  <path class="fil3" d="M5.83768 3.96915c0.00611811,-0.032685 0.0375787,-0.0542244 0.0702638,-0.0481024 0.0326811,0.00612205 0.0542165,0.0375787 0.0480984,0.0702638l-0.181083 0.96578 -0.0591811 -0.0110827 0.0593268 0.011126c-0.00549213,0.0292795 -0.0312717,0.0496299 -0.0600787,0.0492402l-0.548449 0 -0.0670118 0.666614c-0.00325591,0.0330748 -0.0327126,0.057248 -0.0657874,0.0539921 -0.0330748,-0.00325197 -0.057248,-0.0327087 -0.0539921,-0.0657835l0.0720315 -0.716559c0.000732283,-0.0327008 0.0274685,-0.0589921 0.0603465,-0.0589921l0.553669 0 0.171846 -0.916496z"/>
  <path class="fil9" d="M4.14639 4.21914c0.0333346,0 0.0603622,0.0270236 0.0603622,0.0603622 0,0.0333346 -0.0270276,0.0603583 -0.0603622,0.0603583l-0.422528 0c-0.028685,0 -0.0526969,-0.0200079 -0.0588386,-0.0468307l-0.179303 -0.537917c-0.0104173,-0.0315118 0.0066811,-0.0655039 0.0381969,-0.0759252 0.0315118,-0.0104173 0.0655039,0.00668504 0.0759213,0.0382008l0.167252 0.501752 0.379299 0z"/>
  <path class="fil8" d="M5.24085 3.50405l-0.0126417 -0.0497559 -0.0675354 -0.0558543c0,0 -0.0971535,-0.0429843 -0.0986772,-0.0724567 -0.0117283,-0.226626 0.679181,-0.126524 0.335953,0.318055l-0.0231535 0.00424803 -0.0465236 -0.101413 -0.0448071 -0.022185c0.0787283,-0.0890984 -0.0245984,-0.218331 -0.0426142,-0.0206378z"/>
  <path class="fil0" d="M1.89176 2.5042l3.04315 0c0.0294528,0 0.0533346,-0.0238819 0.0533346,-0.0533346 0,-0.0294528 -0.0238819,-0.0533346 -0.0533346,-0.0533346l-3.04315 0c-0.0294528,0 -0.0533346,0.0238819 -0.0533346,0.0533346 0,0.0294528 0.0238819,0.0533346 0.0533346,0.0533346z"/>
  <path class="fil12" d="M3.17331 2.68083l0.106669 0c0.0294528,0 0.0533346,-0.0238819 0.0533346,-0.0533346 0,-0.0294528 -0.0238819,-0.0533346 -0.0533346,-0.0533346l-0.106669 0c-0.0294528,0 -0.0533346,0.0238819 -0.0533346,0.0533346 0,0.0294528 0.0238819,0.0533346 0.0533346,0.0533346z"/>
  <path class="fil12" d="M3.49334 2.6275c0,0.0294528 0.0238819,0.0533346 0.0533346,0.0533346l0.106669 0c0.0294528,0 0.0533346,-0.0238819 0.0533346,-0.0533346 0,-0.0294528 -0.0238819,-0.0533346 -0.0533346,-0.0533346l-0.106669 0c-0.0294528,0 -0.0533346,0.0238819 -0.0533346,0.0533346z"/>
  <g id="_291559376">
   <path id="_291561104" class="fil13" d="M3.32248 1.61735l0.181709 0c0.0920315,0 0.167323,0.0360827 0.167323,0.128102l0 0.531657 -0.516354 0 0 -0.531657c0,-0.0920276 0.0752913,-0.128102 0.167323,-0.128102z"/>
   <rect id="_291561056" class="fil5" x="3.34863" y="1.50756" width="0.129543" height="0.165255"/>
   <g>
    <path id="_291560744" class="fil5" d="M3.55259 1.46174c0,0 0.0684488,-0.0852913 0.0352402,-0.103835 0,0 -0.0744488,0.00202362 -0.0352402,0.103835z"/>
    <path id="_291560960" class="fil5" d="M3.27408 1.46174c0,0 -0.0684528,-0.0852913 -0.0352441,-0.103835 0,0 0.0744488,0.00202362 0.0352441,0.103835z"/>
   </g>
   <ellipse id="_291559808" class="fil4" cx="3.41333" cy="1.37486" rx="0.156868" ry="0.201532"/>
   <path id="_291560288" class="fil0" d="M3.26803 1.39248c0,0 0.0395079,-0.0732047 0.0453465,-0.0965551 0,0 0.128441,0.140114 0.233528,0.0116772l0.00583465 0.099248c0,0 0.110925,-0.22185 -0.140114,-0.233528 0,0 -0.239362,0.00583858 -0.144594,0.219157z"/>
   <polygon id="_291560168" class="fil14" points="3.42067,1.71634 3.48017,2.08945 3.41333,2.18918 3.34649,2.08945 3.40599,1.71634 3.41333,1.71594 "/>
   <path id="_291559976" class="fil15" d="M3.54269 1.62181c-0.0159173,-0.00253543 -0.0337677,-0.00416142 -0.052378,-0.0044685l-0.0121378 0 -0.0648386 0.0554685 -0.0648386 -0.0554685 -0.0121378 0c-0.0186102,0.000307087 -0.0364606,0.00193307 -0.052374,0.0044685l0.0727638 0.109154 0.0565866 -0.058063 0.0565866 0.058063 0.0727677 -0.109154z"/>
   <polygon id="_291559856" class="fil16" points="3.43795,1.69817 3.41333,1.67291 3.38871,1.69817 3.41333,1.72402 "/>
   <g>
    <path id="_291560384" class="fil4" d="M3.71906 2.23752c-0.00546457,0.000795276 0.055378,-0.00490157 0.055378,-0.00490157l0.011437 0.0928504c0,0 -0.00947244,0.0592126 -0.057185,0.044189 0,0 0.00887008,-0.00655906 0.0393031,-0.045626l-0.0067874 -0.0373622c0,0 -0.0241969,-0.00779921 -0.0171693,0.0320748 0,0 -0.0293031,-0.00159449 -0.0290236,-0.0706929l0.00404724 -0.0105315z"/>
    <path id="_291559256" class="fil13" d="M3.55955 1.62312c0,0 0.0439055,-0.00693307 0.0865354,0.00955118 0.0444764,0.0172047 0.0877756,0.0584291 0.0879409,0.0868858l0.0466969 0.521429 -0.0742008 0.00592126 -0.0558425 -0.406484 -0.0526142 0.0063622 -0.0385157 -0.223665z"/>
   </g>
   <g>
    <path id="_291559184" class="fil4" d="M3.10761 2.23752c0.00546457,0.000795276 -0.055378,-0.00490157 -0.055378,-0.00490157l-0.011437 0.0928504c0,0 0.0094685,0.0592126 0.057185,0.044189 0,0 -0.00887008,-0.00655906 -0.0393071,-0.045626l0.00679134 -0.0373622c0,0 0.0241969,-0.00779921 0.0171693,0.0320748 0,0 0.0292992,-0.00159449 0.0290236,-0.0706929l-0.00404724 -0.0105315z"/>
    <path id="_291559112" class="fil13" d="M3.26711 1.62312c0,0 -0.0439055,-0.00693307 -0.0865394,0.00955118 -0.0444764,0.0172047 -0.0877717,0.0584291 -0.087937,0.0868858l-0.0466969 0.521429 0.0742008 0.00592126 0.0558425 -0.406484 0.0526142 0.0063622 0.0385157 -0.223665z"/>
   </g>
  </g>
 </g>
 <rect class="fil17" width="6.82666" height="6.82666"/>
</svg>
